<?xml version="1.0" encoding="UTF-8"?> <svg xmlns="http://www.w3.org/2000/svg" width="405" height="181" viewBox="0 0 405 181" fill="none"> <g clip-path="url(#clip0)"> <path d="M85.5002 131L57.3002 147.3L29.2002 131L57.3002 114.8L85.5002 131Z" fill="white" stroke="#263238" stroke-width="2" stroke-miterlimit="10" stroke-linecap="round" stroke-linejoin="round"></path> <path d="M85.5003 131V163.5L57.3003 179.8V147.3L85.5003 131Z" fill="#92E3A9" stroke="#263238" stroke-width="2" stroke-miterlimit="10" stroke-linecap="round" stroke-linejoin="round"></path> <path d="M57.3002 147.3V179.8L29.2002 163.5V131L57.3002 147.3Z" fill="#263238" stroke="#263238" stroke-width="2" stroke-miterlimit="10" stroke-linecap="round" stroke-linejoin="round"></path> <path d="M57.3002 114.8V147.3L29.2002 131V98.5L57.3002 114.8Z" fill="#263238" stroke="#263238" stroke-width="2" stroke-miterlimit="10" stroke-linecap="round" stroke-linejoin="round"></path> <path d="M85.5002 98.5L57.3002 114.8L29.2002 98.5L57.3002 82.3L85.5002 98.5Z" fill="white" stroke="#263238" stroke-width="2" stroke-miterlimit="10" stroke-linecap="round" stroke-linejoin="round"></path> <path d="M85.5003 98.5V131L57.3003 147.3V114.8L85.5003 98.5Z" fill="#92E3A9" stroke="#263238" stroke-width="2" stroke-miterlimit="10" stroke-linecap="round" stroke-linejoin="round"></path> <path d="M29.2 98.5V131L1 114.8V82.3L29.2 98.5Z" fill="#263238" stroke="#263238" stroke-width="2" stroke-miterlimit="10" stroke-linecap="round" stroke-linejoin="round"></path> <path d="M57.3 82.3L29.2 98.5L1 82.3L29.2 66L57.3 82.3Z" fill="white" stroke="#263238" stroke-width="2" stroke-miterlimit="10" stroke-linecap="round" stroke-linejoin="round"></path> <path d="M57.3002 82.3V114.8L29.2002 131V98.5L57.3002 82.3Z" fill="#92E3A9" stroke="#263238" stroke-width="2" stroke-miterlimit="10" stroke-linecap="round" stroke-linejoin="round"></path> <path d="M29.2 66V98.5L1 82.3V49.8L29.2 66Z" fill="#263238" stroke="#263238" stroke-width="2" stroke-miterlimit="10" stroke-linecap="round" stroke-linejoin="round"></path> <path d="M57.3 49.8L29.2 66L1 49.8L29.2 33.5L57.3 49.8Z" fill="white" stroke="#263238" stroke-width="2" stroke-miterlimit="10" stroke-linecap="round" stroke-linejoin="round"></path> <path d="M57.3002 49.8V82.3L29.2002 98.5V66L57.3002 49.8Z" fill="#92E3A9" stroke="#263238" stroke-width="2" stroke-miterlimit="10" stroke-linecap="round" stroke-linejoin="round"></path> <path d="M85.4998 66V98.5L57.2998 82.3V49.8L85.4998 66Z" fill="#263238" stroke="#263238" stroke-width="2" stroke-miterlimit="10" stroke-linecap="round" stroke-linejoin="round"></path> <path d="M113.6 49.8L85.4998 66L57.2998 49.8L85.4998 33.5L113.6 49.8Z" fill="white" stroke="#263238" stroke-width="2" stroke-miterlimit="10" stroke-linecap="round" stroke-linejoin="round"></path> <path d="M113.6 49.8V82.3L85.5 98.5V66L113.6 49.8Z" fill="#92E3A9" stroke="#263238" stroke-width="2" stroke-miterlimit="10" stroke-linecap="round" stroke-linejoin="round"></path> <path d="M85.4998 33.5V66L57.2998 49.8V17.3L85.4998 33.5Z" fill="#263238" stroke="#263238" stroke-width="2" stroke-miterlimit="10" stroke-linecap="round" stroke-linejoin="round"></path> <path d="M113.6 17.3L85.4998 33.5L57.2998 17.3L85.4998 1L113.6 17.3Z" fill="white" stroke="#263238" stroke-width="2" stroke-miterlimit="10" stroke-linecap="round" stroke-linejoin="round"></path> <path d="M113.6 17.3V49.8L85.5 66V33.5L113.6 17.3Z" fill="#92E3A9" stroke="#263238" stroke-width="2" stroke-miterlimit="10" stroke-linecap="round" stroke-linejoin="round"></path> </g> <g clip-path="url(#clip1)"> <path d="M56.8998 147.1V179.6L28.7998 163.4V130.9L56.8998 147.1Z" fill="#263238" stroke="#263238" stroke-width="1.2" stroke-miterlimit="10" stroke-linecap="round" stroke-linejoin="round"></path> <path d="M85.0998 130.9L56.8998 147.1L28.7998 130.9L56.8998 114.6L85.0998 130.9Z" fill="white" stroke="#263238" stroke-width="1.2" stroke-miterlimit="10" stroke-linecap="round" stroke-linejoin="round"></path> <path d="M82.8 132.2L57.6 146.7C57.1 147 56.6 147 56.1 146.7L31 132.2C30 131.6 30 130.2 31 129.6L56.2 115C56.7 114.7 57.2 114.7 57.7 115L82.9 129.5C83.8 130.2 83.8 131.6 82.8 132.2Z" fill="white" stroke="#263238" stroke-width="1.2" stroke-miterlimit="10" stroke-linecap="round" stroke-linejoin="round"></path> <path d="M85.0999 130.9V163.4L56.8999 179.6V147.1L85.0999 130.9Z" fill="#92E3A9" stroke="#263238" stroke-width="1.2" stroke-miterlimit="10" stroke-linecap="round" stroke-linejoin="round"></path> <path d="M85.0999 133.5V162.5C85.0999 163 84.7999 163.5 84.2999 163.8L59.0999 178.3C58.0999 178.9 56.8999 178.2 56.8999 177V148C56.8999 147.5 57.1999 147 57.6999 146.7L82.8999 132.2C83.7999 131.6 85.0999 132.3 85.0999 133.5Z" fill="#92E3A9" stroke="#263238" stroke-width="1.2" stroke-miterlimit="10" stroke-linecap="round" stroke-linejoin="round"></path> <path d="M56.8998 114.4V146.9L28.7998 130.6V98.1L56.8998 114.4Z" fill="#263238" stroke="#263238" stroke-width="1.2" stroke-miterlimit="10" stroke-linecap="round" stroke-linejoin="round"></path> <path d="M85.0998 98.1L56.8998 114.4L28.7998 98.1L56.8998 81.9L85.0998 98.1Z" fill="white" stroke="#263238" stroke-width="1.2" stroke-miterlimit="10" stroke-linecap="round" stroke-linejoin="round"></path> <path d="M82.8 99.4L57.6 113.9C57.1 114.2 56.6 114.2 56.1 113.9L31 99.4C30 98.8 30 97.4 31 96.8L56.2 82.3C56.7 82 57.2 82 57.7 82.3L82.9 96.8C83.8 97.4 83.8 98.9 82.8 99.4Z" fill="white" stroke="#263238" stroke-width="1.2" stroke-miterlimit="10" stroke-linecap="round" stroke-linejoin="round"></path> <path d="M85.0999 98.1V130.6L56.8999 146.9V114.4L85.0999 98.1Z" fill="#92E3A9" stroke="#263238" stroke-width="1.2" stroke-miterlimit="10" stroke-linecap="round" stroke-linejoin="round"></path> <path d="M85.0999 100.7V129.7C85.0999 130.2 84.7999 130.7 84.2999 131L59.0999 145.5C58.0999 146.1 56.8999 145.4 56.8999 144.2V115.2C56.8999 114.7 57.1999 114.2 57.6999 113.9L82.8999 99.4C83.7999 98.9 85.0999 99.6 85.0999 100.7Z" fill="#92E3A9" stroke="#263238" stroke-width="1.2" stroke-miterlimit="10" stroke-linecap="round" stroke-linejoin="round"></path> <path d="M85.0999 65.6V98.1L56.8999 81.9V49.4L85.0999 65.6Z" fill="#263238" stroke="#263238" stroke-width="1.2" stroke-miterlimit="10" stroke-linecap="round" stroke-linejoin="round"></path> <path d="M113.2 49.4L85.0999 65.6L56.8999 49.4L85.0999 33.1L113.2 49.4Z" fill="white" stroke="#263238" stroke-width="1.2" stroke-miterlimit="10" stroke-linecap="round" stroke-linejoin="round"></path> <path d="M111 50.7L85.7997 65.2C85.2997 65.5 84.7997 65.5 84.2997 65.2L59.1997 50.7C58.1997 50.1 58.1997 48.7 59.1997 48.1L84.3997 33.6C84.8997 33.3 85.3997 33.3 85.8997 33.6L111 48.1C112 48.6 112 50.1 111 50.7Z" fill="white" stroke="#263238" stroke-width="1.2" stroke-miterlimit="10" stroke-linecap="round" stroke-linejoin="round"></path> <path d="M113.2 49.4V81.9L85.1001 98.1V65.6L113.2 49.4Z" fill="#92E3A9" stroke="#263238" stroke-width="1.2" stroke-miterlimit="10" stroke-linecap="round" stroke-linejoin="round"></path> <path d="M113.2 52V81C113.2 81.5 112.9 82 112.4 82.3L87.3001 96.8C86.3001 97.4 85.1001 96.7 85.1001 95.5V66.5C85.1001 66 85.4001 65.4999 85.9001 65.1999L111 50.7C112 50.1 113.2 50.8 113.2 52Z" fill="#92E3A9" stroke="#263238" stroke-width="1.2" stroke-miterlimit="10" stroke-linecap="round" stroke-linejoin="round"></path> <path d="M85.0999 33.1V65.6L56.8999 49.4V16.9L85.0999 33.1Z" fill="#263238" stroke="#263238" stroke-width="1.2" stroke-miterlimit="10" stroke-linecap="round" stroke-linejoin="round"></path> <path d="M113.2 16.9L85.0999 33.1L56.8999 16.9L85.0999 0.599976L113.2 16.9Z" fill="white" stroke="#263238" stroke-width="1.2" stroke-miterlimit="10" stroke-linecap="round" stroke-linejoin="round"></path> <path d="M111 18.2L85.7997 32.7C85.2997 33 84.7997 33 84.2997 32.7L59.1997 18.2C58.1997 17.6 58.1997 16.2 59.1997 15.6L84.2997 0.999963C84.7997 0.699963 85.2997 0.699963 85.7997 0.999963L111 15.6C112 16.1 112 17.6 111 18.2Z" fill="white" stroke="#263238" stroke-width="1.2" stroke-miterlimit="10" stroke-linecap="round" stroke-linejoin="round"></path> <path d="M113.2 16.9V49.4L85.1001 65.6V33.1L113.2 16.9Z" fill="#92E3A9" stroke="#263238" stroke-width="1.2" stroke-miterlimit="10" stroke-linecap="round" stroke-linejoin="round"></path> <path d="M113.2 19.5V48.5C113.2 49 112.9 49.4999 112.4 49.7999L87.3001 64.3C86.3001 64.9 85.1001 64.2 85.1001 63V34C85.1001 33.5 85.4001 33 85.9001 32.7L111 18.2C112 17.6 113.2 18.3 113.2 19.5Z" fill="#92E3A9" stroke="#263238" stroke-width="1.2" stroke-miterlimit="10" stroke-linecap="round" stroke-linejoin="round"></path> <path d="M28.8001 98.1V130.6L0.600098 114.4V81.9L28.8001 98.1Z" fill="#263238" stroke="#263238" stroke-width="1.2" stroke-miterlimit="10" stroke-linecap="round" stroke-linejoin="round"></path> <path d="M56.9001 81.9L28.8001 98.1L0.600098 81.9L28.8001 65.6L56.9001 81.9Z" fill="white" stroke="#263238" stroke-width="1.2" stroke-miterlimit="10" stroke-linecap="round" stroke-linejoin="round"></path> <path d="M54.6999 83.2L29.4999 97.7C28.9999 98 28.4999 98 27.9999 97.7L2.8999 83.2C1.8999 82.6 1.8999 81.2 2.8999 80.6L27.9999 66C28.4999 65.7 28.9999 65.7 29.4999 66L54.6999 80.5C55.6999 81.2 55.6999 82.6 54.6999 83.2Z" fill="white" stroke="#263238" stroke-width="1.2" stroke-miterlimit="10" stroke-linecap="round" stroke-linejoin="round"></path> <path d="M56.9003 81.9V114.4L28.8003 130.6V98.1L56.9003 81.9Z" fill="#92E3A9" stroke="#263238" stroke-width="1.2" stroke-miterlimit="10" stroke-linecap="round" stroke-linejoin="round"></path> <path d="M56.9003 84.5V113.5C56.9003 114 56.6003 114.5 56.1003 114.8L31.0003 129.3C30.0003 129.9 28.8003 129.2 28.8003 128V99C28.8003 98.5 29.1003 98 29.6003 97.7L54.8003 83.2C55.7003 82.6 56.9003 83.3 56.9003 84.5Z" fill="#92E3A9" stroke="#263238" stroke-width="1.2" stroke-miterlimit="10" stroke-linecap="round" stroke-linejoin="round"></path> <path d="M28.8001 65.6V98.1L0.600098 81.9V49.4L28.8001 65.6Z" fill="#263238" stroke="#263238" stroke-width="1.2" stroke-miterlimit="10" stroke-linecap="round" stroke-linejoin="round"></path> <path d="M56.9001 49.4L28.8001 65.6L0.600098 49.4L28.8001 33.1L56.9001 49.4Z" fill="white" stroke="#263238" stroke-width="1.2" stroke-miterlimit="10" stroke-linecap="round" stroke-linejoin="round"></path> <path d="M54.6999 50.7L29.4999 65.2C28.9999 65.5 28.4999 65.5 27.9999 65.2L2.8999 50.7C1.8999 50.1 1.8999 48.7 2.8999 48.1L27.9999 33.5C28.4999 33.2 28.9999 33.2 29.4999 33.5L54.6999 48C55.6999 48.6 55.6999 50.1 54.6999 50.7Z" fill="white" stroke="#263238" stroke-width="1.2" stroke-miterlimit="10" stroke-linecap="round" stroke-linejoin="round"></path> <path d="M56.9003 49.4V81.9L28.8003 98.1V65.6L56.9003 49.4Z" fill="#92E3A9" stroke="#263238" stroke-width="1.2" stroke-miterlimit="10" stroke-linecap="round" stroke-linejoin="round"></path> <path d="M56.9003 52V81C56.9003 81.5 56.6003 82 56.1003 82.3L31.0003 96.8C30.0003 97.4 28.8003 96.7 28.8003 95.5V66.5C28.8003 66 29.1003 65.4999 29.6003 65.1999L54.8003 50.7C55.7003 50.1 56.9003 50.8 56.9003 52Z" fill="#92E3A9" stroke="#263238" stroke-width="1.2" stroke-miterlimit="10" stroke-linecap="round" stroke-linejoin="round"></path> </g> <path d="M153.684 41.2874L164.983 63.3011L176.475 41.2874H186.095L169.438 71.0253V86.9885H160.593V70.8966L144 41.2874H153.684Z" fill="#263238"></path> <path d="M190.302 86.9885V53.2598H198.953V86.9885H190.302ZM190.302 48.5609V40H198.953V48.5609H190.302Z" fill="#263238"></path> <path d="M222.447 87.6322C219.735 87.6322 217.282 87.1816 215.086 86.2805C212.891 85.3364 211.019 84.0705 209.469 82.4828C207.92 80.895 206.715 79.0498 205.854 76.9471C205.036 74.8444 204.627 72.6345 204.627 70.3172C204.627 67.9142 205.036 65.6613 205.854 63.5586C206.672 61.413 207.855 59.5464 209.405 57.9586C210.954 56.328 212.827 55.0406 215.022 54.0965C217.26 53.1525 219.756 52.6805 222.511 52.6805C225.266 52.6805 227.719 53.1525 229.871 54.0965C232.066 55.0406 233.917 56.3065 235.424 57.8943C236.973 59.482 238.135 61.3272 238.91 63.4299C239.728 65.5326 240.137 67.7211 240.137 69.9954C240.137 70.5533 240.115 71.0897 240.072 71.6046C240.072 72.1195 240.029 72.5487 239.943 72.892H213.795C213.924 74.2222 214.247 75.4023 214.764 76.4322C215.28 77.4621 215.947 78.3418 216.765 79.0713C217.583 79.8008 218.508 80.3586 219.541 80.7448C220.574 81.131 221.65 81.3241 222.769 81.3241C224.491 81.3241 226.105 80.9165 227.612 80.1011C229.161 79.2429 230.216 78.1272 230.775 76.754L238.2 78.8138C236.952 81.3885 234.95 83.5126 232.196 85.1862C229.484 86.8169 226.234 87.6322 222.447 87.6322ZM231.227 67.292C231.012 64.7602 230.065 62.7433 228.386 61.2414C226.751 59.6966 224.749 58.9241 222.382 58.9241C221.22 58.9241 220.122 59.1387 219.089 59.5678C218.099 59.954 217.217 60.5119 216.442 61.2414C215.667 61.9709 215.022 62.8506 214.505 63.8805C214.032 64.9103 213.752 66.0475 213.666 67.292H231.227Z" fill="#263238"></path> <path d="M245.343 40H253.994V76.1747C253.994 77.4192 254.295 78.3847 254.898 79.0713C255.501 79.7579 256.361 80.1011 257.481 80.1011C257.997 80.1011 258.557 80.0153 259.159 79.8437C259.805 79.672 260.407 79.4575 260.967 79.2L262.129 85.7655C260.967 86.3234 259.611 86.7525 258.062 87.0529C256.512 87.3533 255.113 87.5034 253.865 87.5034C251.153 87.5034 249.044 86.7954 247.538 85.3793C246.074 83.9203 245.343 81.8605 245.343 79.2V40Z" fill="#263238"></path> <path d="M279.909 87.6322C277.584 87.6322 275.432 87.1816 273.452 86.2805C271.472 85.3793 269.772 84.1349 268.352 82.5471C266.932 80.9594 265.812 79.1142 264.995 77.0115C264.22 74.8659 263.832 72.5701 263.832 70.1241C263.832 67.6782 264.198 65.4038 264.93 63.3011C265.705 61.1985 266.759 59.3533 268.094 57.7655C269.428 56.1778 271.02 54.9333 272.871 54.0322C274.722 53.131 276.745 52.6805 278.94 52.6805C281.437 52.6805 283.675 53.2812 285.655 54.4828C287.678 55.6843 289.249 57.2506 290.368 59.1816V40H299.019V77.0759C299.019 77.977 299.17 78.6207 299.471 79.0069C299.773 79.3931 300.289 79.6077 301.021 79.6506V86.9885C299.514 87.2889 298.288 87.4391 297.341 87.4391C295.791 87.4391 294.521 87.0529 293.531 86.2805C292.542 85.508 291.982 84.4996 291.853 83.2552L291.659 81.131C290.411 83.2766 288.711 84.9073 286.559 86.023C284.45 87.0958 282.233 87.6322 279.909 87.6322ZM282.168 80.2943C282.986 80.2943 283.825 80.1655 284.686 79.908C285.547 79.6077 286.343 79.2 287.075 78.6851C287.807 78.1701 288.453 77.5693 289.012 76.8828C289.615 76.1962 290.067 75.4452 290.368 74.6299V66.5839C290.024 65.6398 289.529 64.7816 288.883 64.0092C288.28 63.1939 287.57 62.5073 286.752 61.9494C285.978 61.3487 285.138 60.8766 284.234 60.5333C283.374 60.19 282.513 60.0184 281.652 60.0184C280.361 60.0184 279.155 60.2973 278.036 60.8552C276.96 61.413 276.035 62.1854 275.26 63.1724C274.485 64.1165 273.883 65.2107 273.452 66.4552C273.022 67.6996 272.807 68.987 272.807 70.3172C272.807 71.7333 273.043 73.0421 273.517 74.2437C273.99 75.4452 274.636 76.4966 275.454 77.3977C276.272 78.2989 277.24 79.0069 278.359 79.5218C279.521 80.0368 280.791 80.2943 282.168 80.2943Z" fill="#263238"></path> <path d="M148.519 151.356V105.655H167.953C170.062 105.655 171.999 106.106 173.764 107.007C175.571 107.865 177.121 109.024 178.412 110.483C179.703 111.899 180.715 113.529 181.447 115.375C182.178 117.177 182.544 119.001 182.544 120.846C182.544 122.777 182.2 124.665 181.511 126.51C180.822 128.313 179.854 129.922 178.606 131.338C177.358 132.754 175.851 133.891 174.086 134.749C172.322 135.608 170.385 136.037 168.276 136.037H157.429V151.356H148.519ZM157.429 128.248H167.759C169.395 128.248 170.751 127.583 171.827 126.253C172.946 124.923 173.505 123.12 173.505 120.846C173.505 119.687 173.333 118.657 172.989 117.756C172.644 116.812 172.193 116.018 171.633 115.375C171.073 114.731 170.406 114.259 169.632 113.959C168.9 113.615 168.147 113.444 167.372 113.444H157.429V128.248Z" fill="#263238"></path> <path d="M208.05 125.094C205.424 125.137 203.078 125.652 201.012 126.639C198.946 127.583 197.461 129.021 196.557 130.952V151.356H187.906V117.628H195.847V124.837C196.45 123.678 197.16 122.648 197.978 121.747C198.796 120.803 199.678 119.988 200.625 119.301C201.572 118.615 202.519 118.1 203.466 117.756C204.456 117.37 205.402 117.177 206.306 117.177C206.78 117.177 207.124 117.177 207.339 117.177C207.598 117.177 207.834 117.198 208.05 117.241V125.094Z" fill="#263238"></path> <path d="M226.795 152C224.041 152 221.566 151.528 219.371 150.584C217.176 149.64 215.303 148.374 213.754 146.786C212.247 145.156 211.085 143.289 210.267 141.186C209.45 139.084 209.041 136.874 209.041 134.556C209.041 132.196 209.45 129.965 210.267 127.862C211.085 125.759 212.247 123.914 213.754 122.326C215.303 120.696 217.176 119.408 219.371 118.464C221.566 117.52 224.041 117.048 226.795 117.048C229.55 117.048 232.004 117.52 234.156 118.464C236.351 119.408 238.202 120.696 239.708 122.326C241.258 123.914 242.441 125.759 243.259 127.862C244.077 129.965 244.486 132.196 244.486 134.556C244.486 136.874 244.077 139.084 243.259 141.186C242.441 143.289 241.279 145.156 239.773 146.786C238.266 148.374 236.415 149.64 234.22 150.584C232.025 151.528 229.55 152 226.795 152ZM217.95 134.556C217.95 136.058 218.166 137.431 218.596 138.676C219.069 139.877 219.694 140.929 220.468 141.83C221.286 142.731 222.233 143.439 223.309 143.954C224.385 144.426 225.547 144.662 226.795 144.662C228.044 144.662 229.206 144.426 230.282 143.954C231.358 143.439 232.283 142.731 233.058 141.83C233.876 140.929 234.5 139.856 234.93 138.611C235.404 137.367 235.641 135.994 235.641 134.492C235.641 133.033 235.404 131.681 234.93 130.437C234.5 129.192 233.876 128.12 233.058 127.218C232.283 126.317 231.358 125.631 230.282 125.159C229.206 124.644 228.044 124.386 226.795 124.386C225.547 124.386 224.385 124.644 223.309 125.159C222.233 125.674 221.286 126.382 220.468 127.283C219.694 128.184 219.069 129.257 218.596 130.501C218.166 131.746 217.95 133.097 217.95 134.556Z" fill="#263238"></path> <path d="M270.157 149.618C268.994 150.133 267.574 150.648 265.895 151.163C264.217 151.678 262.452 151.936 260.601 151.936C259.396 151.936 258.256 151.785 257.179 151.485C256.146 151.185 255.221 150.713 254.403 150.069C253.628 149.382 253.004 148.524 252.531 147.494C252.057 146.421 251.821 145.134 251.821 143.632V124.257H247.366V117.628H251.821V106.685H260.472V117.628H267.574V124.257H260.472V140.736C260.472 141.937 260.773 142.795 261.376 143.31C262.022 143.782 262.796 144.018 263.7 144.018C264.604 144.018 265.487 143.868 266.347 143.568C267.208 143.267 267.897 143.01 268.413 142.795L270.157 149.618Z" fill="#263238"></path> <path d="M289.467 152C286.712 152 284.237 151.528 282.042 150.584C279.847 149.64 277.975 148.374 276.425 146.786C274.919 145.156 273.757 143.289 272.939 141.186C272.121 139.084 271.712 136.874 271.712 134.556C271.712 132.196 272.121 129.965 272.939 127.862C273.757 125.759 274.919 123.914 276.425 122.326C277.975 120.696 279.847 119.408 282.042 118.464C284.237 117.52 286.712 117.048 289.467 117.048C292.222 117.048 294.675 117.52 296.827 118.464C299.022 119.408 300.873 120.696 302.38 122.326C303.929 123.914 305.113 125.759 305.931 127.862C306.748 129.965 307.157 132.196 307.157 134.556C307.157 136.874 306.748 139.084 305.931 141.186C305.113 143.289 303.951 145.156 302.444 146.786C300.938 148.374 299.087 149.64 296.892 150.584C294.697 151.528 292.222 152 289.467 152ZM280.622 134.556C280.622 136.058 280.837 137.431 281.268 138.676C281.741 139.877 282.365 140.929 283.14 141.83C283.958 142.731 284.905 143.439 285.981 143.954C287.057 144.426 288.219 144.662 289.467 144.662C290.715 144.662 291.877 144.426 292.953 143.954C294.029 143.439 294.955 142.731 295.73 141.83C296.547 140.929 297.172 139.856 297.602 138.611C298.075 137.367 298.312 135.994 298.312 134.492C298.312 133.033 298.075 131.681 297.602 130.437C297.172 129.192 296.547 128.12 295.73 127.218C294.955 126.317 294.029 125.631 292.953 125.159C291.877 124.644 290.715 124.386 289.467 124.386C288.219 124.386 287.057 124.644 285.981 125.159C284.905 125.674 283.958 126.382 283.14 127.283C282.365 128.184 281.741 129.257 281.268 130.501C280.837 131.746 280.622 133.097 280.622 134.556Z" fill="#263238"></path> <path d="M310.866 134.492C310.866 132.132 311.275 129.9 312.093 127.798C312.911 125.695 314.094 123.85 315.644 122.262C317.193 120.674 319.066 119.408 321.261 118.464C323.456 117.52 325.931 117.048 328.686 117.048C332.387 117.048 335.529 117.842 338.112 119.43C340.737 121.018 342.696 123.099 343.987 125.674L335.529 128.248C334.797 127.004 333.829 126.06 332.624 125.416C331.419 124.73 330.084 124.386 328.621 124.386C327.373 124.386 326.211 124.644 325.135 125.159C324.058 125.631 323.112 126.317 322.294 127.218C321.519 128.077 320.895 129.128 320.421 130.372C319.991 131.617 319.776 132.99 319.776 134.492C319.776 135.994 320.013 137.367 320.486 138.611C320.959 139.856 321.584 140.929 322.358 141.83C323.176 142.731 324.123 143.439 325.199 143.954C326.275 144.426 327.416 144.662 328.621 144.662C330.17 144.662 331.591 144.276 332.882 143.503C334.216 142.731 335.142 141.787 335.658 140.671L344.116 143.246C342.954 145.821 341.039 147.923 338.37 149.554C335.701 151.185 332.495 152 328.75 152C325.995 152 323.52 151.528 321.325 150.584C319.13 149.64 317.258 148.374 315.708 146.786C314.159 145.156 312.954 143.289 312.093 141.186C311.275 139.041 310.866 136.809 310.866 134.492Z" fill="#263238"></path> <path d="M364.748 152C361.994 152 359.519 151.528 357.324 150.584C355.129 149.64 353.256 148.374 351.707 146.786C350.2 145.156 349.038 143.289 348.22 141.186C347.403 139.084 346.994 136.874 346.994 134.556C346.994 132.196 347.403 129.965 348.22 127.862C349.038 125.759 350.2 123.914 351.707 122.326C353.256 120.696 355.129 119.408 357.324 118.464C359.519 117.52 361.994 117.048 364.748 117.048C367.503 117.048 369.957 117.52 372.109 118.464C374.304 119.408 376.155 120.696 377.661 122.326C379.211 123.914 380.394 125.759 381.212 127.862C382.03 129.965 382.439 132.196 382.439 134.556C382.439 136.874 382.03 139.084 381.212 141.186C380.394 143.289 379.232 145.156 377.726 146.786C376.219 148.374 374.368 149.64 372.173 150.584C369.978 151.528 367.503 152 364.748 152ZM355.903 134.556C355.903 136.058 356.119 137.431 356.549 138.676C357.022 139.877 357.647 140.929 358.421 141.83C359.239 142.731 360.186 143.439 361.262 143.954C362.338 144.426 363.5 144.662 364.748 144.662C365.997 144.662 367.159 144.426 368.235 143.954C369.311 143.439 370.236 142.731 371.011 141.83C371.829 140.929 372.453 139.856 372.883 138.611C373.357 137.367 373.594 135.994 373.594 134.492C373.594 133.033 373.357 131.681 372.883 130.437C372.453 129.192 371.829 128.12 371.011 127.218C370.236 126.317 369.311 125.631 368.235 125.159C367.159 124.644 365.997 124.386 364.748 124.386C363.5 124.386 362.338 124.644 361.262 125.159C360.186 125.674 359.239 126.382 358.421 127.283C357.647 128.184 357.022 129.257 356.549 130.501C356.119 131.746 355.903 133.097 355.903 134.556Z" fill="#263238"></path> <path d="M388.214 104.368H396.865V140.543C396.865 141.787 397.166 142.752 397.769 143.439C398.372 144.126 399.232 144.469 400.351 144.469C400.868 144.469 401.428 144.383 402.03 144.211C402.676 144.04 403.278 143.825 403.838 143.568L405 150.133C403.838 150.691 402.482 151.12 400.933 151.421C399.383 151.721 397.984 151.871 396.736 151.871C394.024 151.871 391.915 151.163 390.409 149.747C388.945 148.288 388.214 146.228 388.214 143.568V104.368Z" fill="#263238"></path> <defs> <clipPath id="clip0"> <rect width="114.6" height="180.8" fill="white"></rect> </clipPath> <clipPath id="clip1"> <rect width="113.8" height="180.2" fill="white"></rect> </clipPath> </defs> </svg> 